<?xml version="1.0" standalone="no"?>
<!DOCTYPE svg PUBLIC "-//W3C//DTD SVG 20010904//EN"
 "http://www.w3.org/TR/2001/REC-SVG-20010904/DTD/svg10.dtd">
<svg version="1.0" xmlns="http://www.w3.org/2000/svg"
 width="512.000000pt" height="512.000000pt" viewBox="0 0 512.000000 512.000000"
 preserveAspectRatio="xMidYMid meet">

<g transform="translate(0.000000,512.000000) scale(0.100000,-0.100000)"
fill="#ffffff" stroke="none">
<path d="M2532 4954 c-19 -13 -22 -24 -22 -89 0 -78 13 -105 50 -105 37 0 50
27 50 105 0 65 -3 76 -22 89 -12 9 -25 16 -28 16 -3 0 -16 -7 -28 -16z"/>
<path d="M1632 4774 c-12 -8 -22 -24 -22 -34 0 -29 80 -222 101 -245 27 -28
73 -11 77 29 4 34 -72 224 -100 249 -25 21 -28 21 -56 1z"/>
<path d="M3428 4773 c-27 -32 -100 -220 -96 -249 4 -40 50 -57 77 -29 20 23
101 216 101 244 0 21 -30 51 -52 51 -8 0 -22 -8 -30 -17z"/>
<path d="M2532 4544 l-22 -15 0 -433 c0 -323 3 -435 12 -444 7 -7 24 -12 38
-12 14 0 31 5 38 12 9 9 12 121 12 444 l0 433 -22 15 c-12 9 -25 16 -28 16 -3
0 -16 -7 -28 -16z"/>
<path d="M860 4260 c-29 -29 -25 -45 27 -101 54 -57 85 -69 113 -44 32 29 24
54 -33 112 -59 58 -77 63 -107 33z"/>
<path d="M4153 4227 c-58 -59 -63 -77 -33 -107 30 -30 48 -25 107 33 58 59 63
77 33 107 -30 30 -48 25 -107 -33z"/>
<path d="M1854 4195 c-16 -24 -12 -35 147 -421 171 -413 183 -435 227 -408 42
27 41 30 -127 436 -89 216 -169 399 -178 406 -26 19 -51 14 -69 -13z"/>
<path d="M3198 4208 c-16 -12 -338 -776 -338 -802 0 -7 9 -21 20 -31 16 -15
26 -17 47 -9 23 8 45 54 190 404 153 367 163 397 151 420 -16 29 -46 36 -70
18z"/>
<path d="M1150 3970 c-11 -11 -20 -28 -20 -37 0 -21 595 -619 623 -627 26 -6
67 35 61 61 -8 28 -606 623 -627 623 -9 0 -26 -9 -37 -20z"/>
<path d="M3614 3688 c-167 -165 -305 -310 -308 -321 -3 -12 4 -28 19 -42 14
-15 30 -22 42 -19 28 8 623 606 623 627 0 9 -9 26 -20 37 -11 11 -28 20 -37
20 -10 0 -153 -136 -319 -302z"/>
<path d="M347 3492 c-40 -43 -18 -65 121 -121 118 -48 152 -50 166 -8 14 38
-7 55 -132 105 -115 47 -132 50 -155 24z"/>
<path d="M4612 3466 c-124 -51 -140 -65 -126 -103 14 -42 45 -40 167 9 125 49
150 72 123 113 -22 34 -43 31 -164 -19z"/>
<path d="M2526 3414 c-13 -12 -16 -40 -16 -139 0 -122 1 -125 25 -141 23 -15
27 -15 50 0 24 16 25 19 25 141 0 131 -8 155 -50 155 -10 0 -26 -7 -34 -16z"/>
<path d="M919 3261 c-20 -16 -22 -23 -14 -47 9 -25 45 -42 404 -191 216 -90
399 -163 406 -163 6 0 20 9 30 20 15 16 17 26 9 47 -8 23 -53 45 -404 190
-217 90 -398 163 -401 163 -4 0 -17 -9 -30 -19z"/>
<path d="M3765 3116 c-345 -144 -391 -166 -399 -189 -8 -21 -6 -31 9 -47 10
-11 25 -20 34 -19 9 0 191 73 406 163 356 148 391 164 400 190 8 24 6 31 -14
47 -13 10 -28 19 -35 18 -6 0 -186 -74 -401 -163z"/>
<path d="M1945 3170 c-11 -12 -15 -28 -12 -42 8 -29 169 -188 191 -188 21 0
56 35 56 57 0 24 -172 193 -197 193 -11 0 -28 -9 -38 -20z"/>
<path d="M3028 3102 c-48 -49 -88 -96 -88 -105 0 -9 9 -26 20 -37 11 -11 28
-20 37 -20 9 0 56 40 105 88 90 90 103 116 72 146 -30 31 -56 18 -146 -72z"/>
<path d="M2469 2907 c-104 -30 -190 -104 -237 -206 -22 -46 -27 -71 -27 -141
0 -76 3 -92 32 -151 39 -79 102 -140 181 -177 48 -22 71 -27 142 -27 71 0 94
5 142 27 79 37 142 98 181 177 28 58 32 75 32 151 0 76 -4 93 -32 151 -60 121
-170 196 -300 205 -40 2 -87 -2 -114 -9z m190 -113 c59 -25 98 -61 126 -119
114 -233 -137 -461 -362 -329 -84 49 -133 165 -112 263 34 159 198 246 348
185z"/>
<path d="M164 2585 c-15 -23 -15 -27 0 -50 15 -23 23 -25 91 -25 78 0 105 13
105 50 0 37 -27 50 -105 50 -68 0 -76 -2 -91 -25z"/>
<path d="M574 2585 c-15 -23 -15 -27 0 -50 l16 -25 433 0 c323 0 436 3 445 12
15 15 15 61 0 76 -9 9 -122 12 -445 12 l-433 0 -16 -25z"/>
<path d="M1706 2594 c-9 -8 -16 -24 -16 -34 0 -42 24 -50 155 -50 122 0 125 1
141 25 15 23 15 27 0 50 -16 24 -19 25 -141 25 -99 0 -127 -3 -139 -16z"/>
<path d="M3134 2585 c-15 -23 -15 -27 0 -50 16 -24 19 -25 141 -25 131 0 155
8 155 50 0 42 -24 50 -155 50 -122 0 -125 -1 -141 -25z"/>
<path d="M3652 2598 c-7 -7 -12 -24 -12 -38 0 -14 5 -31 12 -38 9 -9 122 -12
445 -12 l433 0 16 25 c15 23 15 27 0 50 l-16 25 -433 0 c-323 0 -436 -3 -445
-12z"/>
<path d="M4776 2594 c-9 -8 -16 -24 -16 -34 0 -37 27 -50 105 -50 68 0 76 2
91 25 15 23 15 27 0 50 -15 23 -23 25 -91 25 -54 0 -78 -4 -89 -16z"/>
<path d="M1306 2097 c-398 -166 -419 -178 -403 -222 4 -8 17 -20 29 -25 19 -9
85 15 418 153 351 145 396 167 404 190 8 21 6 31 -9 47 -10 11 -25 20 -34 19
-9 0 -191 -73 -405 -162z"/>
<path d="M3375 2240 c-15 -16 -17 -26 -9 -47 8 -23 54 -45 404 -190 367 -153
397 -163 420 -151 29 16 36 46 18 70 -12 16 -777 338 -803 338 -6 0 -20 -9
-30 -20z"/>
<path d="M2018 2092 c-90 -90 -103 -116 -72 -146 30 -31 56 -18 146 72 48 49
88 96 88 105 0 9 -9 26 -20 37 -11 11 -28 20 -37 20 -9 0 -56 -40 -105 -88z"/>
<path d="M2960 2160 c-11 -11 -20 -28 -20 -37 0 -9 40 -56 88 -105 90 -90 116
-103 146 -72 31 30 18 56 -72 146 -49 48 -96 88 -105 88 -9 0 -26 -9 -37 -20z"/>
<path d="M2532 1984 c-21 -14 -22 -22 -22 -139 0 -131 8 -155 50 -155 42 0 50
24 50 155 0 117 -1 125 -22 139 -12 9 -25 16 -28 16 -3 0 -16 -7 -28 -16z"/>
<path d="M3325 1795 c-15 -14 -22 -30 -19 -42 8 -28 606 -623 627 -623 22 0
57 35 57 57 0 21 -595 619 -623 627 -12 3 -28 -4 -42 -19z"/>
<path d="M1432 1507 c-166 -166 -302 -310 -302 -320 0 -22 35 -57 57 -57 10 0
154 136 320 302 311 311 327 330 291 366 -36 36 -55 20 -366 -291z"/>
<path d="M461 1746 c-120 -49 -143 -71 -117 -111 9 -14 25 -25 36 -25 29 0
222 80 245 101 15 15 17 24 9 46 -14 42 -52 40 -173 -11z"/>
<path d="M4490 1771 c-15 -28 -12 -46 8 -63 23 -19 217 -98 242 -98 11 0 27
11 36 25 27 41 2 64 -120 113 -118 47 -150 51 -166 23z"/>
<path d="M2172 1748 c-5 -7 -83 -190 -172 -406 -158 -382 -162 -393 -146 -417
18 -27 43 -32 69 -12 15 11 337 777 337 802 0 34 -66 59 -88 33z"/>
<path d="M2877 1742 c-10 -10 -17 -23 -17 -29 0 -24 323 -789 337 -800 26 -20
51 -15 69 12 16 24 12 35 -146 417 -89 216 -169 399 -178 406 -22 17 -46 15
-65 -6z"/>
<path d="M2522 1468 c-9 -9 -12 -122 -12 -445 l0 -433 25 -16 c23 -15 27 -15
50 0 l25 16 0 433 c0 323 -3 436 -12 445 -7 7 -24 12 -38 12 -14 0 -31 -5 -38
-12z"/>
<path d="M893 967 c-58 -59 -63 -77 -33 -107 30 -30 48 -25 107 33 58 59 63
77 33 107 -30 30 -48 25 -107 -33z"/>
<path d="M4120 1000 c-30 -30 -25 -48 33 -107 59 -58 77 -63 107 -33 30 30 25
48 -33 107 -59 58 -77 63 -107 33z"/>
<path d="M1708 623 c-19 -24 -98 -218 -98 -243 0 -11 11 -27 25 -36 22 -15 27
-15 48 -1 24 16 107 210 107 251 0 42 -55 61 -82 29z"/>
<path d="M3348 629 c-28 -16 -22 -56 26 -169 50 -119 72 -142 111 -116 14 9
25 25 25 36 0 25 -79 219 -98 243 -17 19 -38 21 -64 6z"/>
<path d="M2526 344 c-12 -11 -16 -35 -16 -89 0 -68 2 -76 25 -91 23 -15 27
-15 50 0 23 15 25 23 25 91 0 54 -4 78 -16 89 -20 20 -48 20 -68 0z"/>
</g>
</svg>
